<?xml version="1.0" encoding="UTF-8"?>
<svg xmlns="http://www.w3.org/2000/svg" xmlns:xlink="http://www.w3.org/1999/xlink" version="1.1" viewBox="0 0 1500 1500">
  <defs>
    <style>
      .cls-1 {
        fill-rule: evenodd;
      }

      .cls-1, .cls-2 {
        fill: #fff;
      }

      .cls-3 {
        clip-path: url(#clippath-1);
      }

      .cls-4 {
        clip-path: url(#clippath);
      }
    </style>
    <clipPath id="clippath">
      <rect class="cls-2" x="596" y="335" width="33" height="33"/>
    </clipPath>
    <clipPath id="clippath-1">
      <rect class="cls-2" x="765" y="1105" width="7" height="132.3"/>
    </clipPath>
  </defs>
  <!-- Generator: Adobe Illustrator 28.7.1, SVG Export Plug-In . SVG Version: 1.2.0 Build 142)  -->
  <g>
    <g id="Layer_1">
      <path class="cls-2" d="M891.8,837.3c0,68-55.1,123.1-123.1,123.1s-123.1-55.1-123.1-123.1,1.9-24.8,5.5-36.3c15.5,50.3,62.3,86.8,117.7,86.8s102.2-36.5,117.7-86.8c3.5,11.5,5.4,23.7,5.4,36.3"/>
      <path class="cls-2" d="M583.1,940.1c-43-2.9-76.1-39.6-74.4-82.9,1.7-40.8,33.7-73.3,73.4-76.4-26,15.6-43.9,43.3-45.2,75.6-1.4,35.3,17.3,66.8,46.2,83.7"/>
      <path class="cls-2" d="M484.1,918.3c-31.2-2.1-55.3-28.7-54-60.2,1.2-29.7,24.5-53.2,53.3-55.4-18.9,11.3-31.9,31.5-32.8,54.9-1,25.6,12.6,48.5,33.5,60.8"/>
      <path class="cls-2" d="M403.5,902.5c-20.1-1.3-35.5-18.5-34.7-38.8.8-19.1,15.7-34.2,34.3-35.6-12.1,7.3-20.5,20.2-21.1,35.3-.7,16.5,8.1,31.2,21.5,39.1"/>
      <path class="cls-2" d="M328.4,877.8c-.6,0-1.1-.1-1.7-.4-1.6-.9-2.2-3-1.3-4.6,74.1-131.9,249.5-217.2,446.8-217.2s365.8,109.1,431.1,217.1c1,1.6.5,3.7-1.2,4.7-1.6,1-3.7.5-4.7-1.2-64.3-106.4-220.7-213.8-425.2-213.8s-367.9,83.9-440.9,213.7c-.6,1.1-1.8,1.7-3,1.7"/>
      <path class="cls-2" d="M266.7,795.2c-.6,0-1.2-.2-1.7-.5-1.6-1-2.2-3-1.2-4.7,84.4-143.4,288.3-239.8,507.3-239.8s416,90.4,497.3,224.9c1,1.6.5,3.7-1.2,4.7-1.6,1-3.7.5-4.7-1.2-80.1-132.6-277.6-221.7-491.5-221.7s-418.2,95-501.4,236.4c-.6,1.1-1.8,1.7-2.9,1.7"/>
      <path class="cls-2" d="M761.8,1039.4c-185.7,0-356.8-63.9-436-162.9-1.2-1.5-.9-3.6.5-4.8,1.5-1.2,3.6-.9,4.8.5,77.9,97.4,247,160.3,430.7,160.3h.2c171.9,0,343-63.1,436-160.6,1.3-1.4,3.5-1.4,4.8-.1,1.4,1.3,1.4,3.5.1,4.8-94.2,98.8-267.3,162.6-440.9,162.7h-.2"/>
      <path class="cls-1" d="M308.8,899.6c-2.6,2.4-6.7,2-8.9-.8s-1.9-6.9.8-9.1c2.8-2.2,6.8-1.9,8.9.8,2.2,2.7,1.8,6.7-.8,9.1"/>
      <path class="cls-1" d="M334.1,925.1c-2.4,2.6-6.5,2.8-9.2.4-2.6-2.5-2.6-6.7,0-9.2,2.5-2.5,6.4-2.5,8.9-.1,2.6,2.3,2.8,6.3.4,8.9"/>
      <path class="cls-1" d="M361.7,948.1c-2.1,2.8-6.2,3.3-9,1.2-2.9-2.2-3.4-6.2-1.1-8.9,2.2-2.7,6.3-3.3,9-1.1,2.8,2.1,3.3,6.1,1.1,8.9"/>
      <path class="cls-1" d="M391.2,968.7c-1.9,3-5.9,3.8-8.9,1.8-3-2-3.8-6-1.8-8.9,2-2.9,6-3.7,8.9-1.8,2.9,1.9,3.7,5.9,1.8,8.9"/>
      <path class="cls-1" d="M422.1,987.1c-1.7,3.1-5.6,4.2-8.7,2.4-3.1-1.8-4.2-5.7-2.4-8.8,1.8-3.1,5.7-4.1,8.7-2.4,3,1.7,4.1,5.7,2.4,8.8"/>
      <path class="cls-1" d="M454.3,1003.2c-1.5,3.2-5.4,4.8-8.5,3.1-3.2-1.6-4.5-5.5-3-8.7,1.6-3.2,5.4-4.5,8.5-2.9,3.1,1.6,4.5,5.2,3,8.5"/>
      <path class="cls-1" d="M487.4,1017.3c-1.3,3.3-5,5-8.4,3.7-3.3-1.4-4.9-5.2-3.5-8.5,1.4-3.3,5.1-4.7,8.3-3.4,3.3,1.2,4.9,4.9,3.6,8.2"/>
      <path class="cls-1" d="M521.3,1029.4c-1.1,3.4-4.8,5.2-8.2,4.1-3.4-1-5.2-4.8-4-8.1,1.2-3.3,4.8-5,8.1-4,3.3,1.1,5.1,4.6,4,8"/>
      <path class="cls-1" d="M555.7,1039.7c-.9,3.4-4.5,5.5-7.9,4.5-3.5-.9-5.4-4.4-4.4-7.8,1-3.4,4.5-5.4,7.9-4.5s5.4,4.4,4.5,7.8"/>
      <path class="cls-1" d="M590.7,1048.2c-.8,3.5-4.2,5.7-7.7,4.9-3.5-.7-5.7-4.1-4.8-7.6.8-3.5,4.3-5.7,7.7-4.9,3.4.7,5.6,4.1,4.8,7.6"/>
      <path class="cls-1" d="M626,1055.1c-.6,3.5-3.9,5.9-7.4,5.3-3.5-.6-5.8-3.9-5.2-7.4.6-3.5,4-5.8,7.4-5.3,3.5.6,5.8,3.9,5.2,7.3"/>
      <path class="cls-1" d="M661.6,1060.2c-.4,3.5-3.6,6-7.2,5.6-3.5-.4-6-3.6-5.5-7.1.5-3.5,3.7-6,7.2-5.6,3.5.4,6,3.6,5.5,7.1"/>
      <path class="cls-1" d="M697.4,1063.8c-.3,3.5-3.4,6.2-6.9,5.9-3.6-.2-6.2-3.3-5.8-6.9.3-3.5,3.4-6.1,6.9-5.9,3.5.2,6.1,3.3,5.8,6.8"/>
      <path class="cls-1" d="M733.3,1065.8c-.1,3.5-3.1,6.3-6.7,6.3-3.6,0-6.3-3.1-6.1-6.7.2-3.5,3.2-6.2,6.7-6.1,3.5,0,6.2,3,6.1,6.6"/>
      <path class="cls-1" d="M769.3,1066.3c0,3.6-2.8,6.5-6.4,6.6-3.6,0-6.4-3-6.4-6.5,0-3.6,2.9-6.3,6.4-6.3,3.5,0,6.4,2.7,6.4,6.2"/>
      <path class="cls-1" d="M805.2,1065.1c.2,3.5-2.5,6.6-6.1,6.8-3.6,0-6.6-2.7-6.7-6.2-.1-3.5,2.6-6.5,6.1-6.6,3.5-.2,6.5,2.4,6.7,6"/>
      <path class="cls-1" d="M841.1,1062.2c.4,3.5-2.2,6.8-5.7,7.1-3.5.3-6.7-2.4-7-5.9-.3-3.5,2.3-6.6,5.8-6.9,3.5-.3,6.6,2.1,7,5.7"/>
      <path class="cls-1" d="M876.8,1057.5c.5,3.4-1.8,6.9-5.4,7.3-3.6.4-6.8-2-7.3-5.6-.5-3.5,1.9-6.7,5.4-7.1,3.5-.4,6.7,1.8,7.2,5.4"/>
      <path class="cls-1" d="M912.2,1051.1c.7,3.4-1.5,7-5,7.6-3.5.6-6.9-1.7-7.5-5.2-.7-3.5,1.6-6.8,5.1-7.4,3.5-.5,6.8,1.5,7.5,5"/>
      <path class="cls-1" d="M947.2,1043.1c.9,3.4-1.2,7.1-4.6,7.8-3.5.8-7-1.4-7.8-4.8-.8-3.4,1.3-6.9,4.7-7.6,3.4-.8,6.8,1.1,7.7,4.6"/>
      <path class="cls-1" d="M981.8,1033.2c1.1,3.4-.8,7-4.2,8.1-3.4,1-7-1-8-4.4-1-3.4.9-6.9,4.3-7.9,3.3-1,6.9.8,7.9,4.2"/>
      <path class="cls-1" d="M1015.9,1021.6c1.2,3.3-.5,7.1-3.8,8.3-3.3,1.2-7.1-.7-8.2-4-1.2-3.4.6-6.9,3.9-8.1,3.3-1.2,6.9.4,8.1,3.8"/>
      <path class="cls-1" d="M1049.3,1008.3c1.4,3.3-.1,7.1-3.4,8.5-3.3,1.5-7-.2-8.4-3.5-1.3-3.3.3-6.9,3.4-8.4,3.2-1.4,6.9,0,8.3,3.3"/>
      <path class="cls-1" d="M1082,993.2c1.6,3.2.3,7-2.9,8.6-3.2,1.6-7,.3-8.5-2.9-1.5-3.2-.2-7.1,2.9-8.6,3.1-1.6,6.9-.3,8.5,2.9"/>
      <path class="cls-1" d="M1113.7,976.3c1.8,3.1.7,7-2.4,8.8-3.1,1.8-7,.7-8.7-2.4-1.7-3.1-.6-7,2.4-8.8,3-1.7,6.9-.6,8.7,2.4"/>
      <path class="cls-1" d="M1144.4,957.6c1.9,3,1.1,6.9-1.9,8.8-3,1.9-7,1.1-8.9-1.9-1.9-3-1-7,1.9-8.8,2.9-1.9,6.9-1,8.9,2"/>
      <path class="cls-1" d="M1173.9,936.9c2.1,2.8,1.5,6.8-1.4,8.9-2.9,2.1-6.9,1.5-9-1.4-2.1-2.9-1.4-6.9,1.4-8.9,2.8-2,6.9-1.4,9,1.4"/>
      <path class="cls-1" d="M1201.7,914.1c2.4,2.6,2.1,6.8-.6,9.2-2.8,2.3-6.9,1.9-9.2-.8-2.3-2.7-1.9-6.7.8-8.9,2.6-2.4,6.6-2.1,8.9.5"/>
      <path class="cls-1" d="M1227.5,889.1c2.6,2.4,2.6,6.5.1,9.1-2.5,2.6-6.5,2.7-9,.1-2.5-2.5-2.5-6.6-.1-9.1,2.4-2.5,6.4-2.6,9-.1"/>
      <path class="cls-2" d="M655.5,566.1c-1.6,0-3-1.1-3.3-2.7l-37.4-177.8c-.4-1.8.8-3.6,2.6-4,1.8-.4,3.6.8,4,2.6l37.4,177.8c.4,1.8-.8,3.6-2.6,4-.2,0-.5,0-.7,0"/>
      <path class="cls-2" d="M486.3,612.8c-1.1,0-2.2-.6-2.9-1.6l-102.6-164.4c-1-1.6-.5-3.7,1.1-4.7,1.6-1,3.7-.5,4.7,1.1l102.6,164.4c1,1.6.5,3.7-1.1,4.7-.6.3-1.2.5-1.8.5"/>
      <path class="cls-2" d="M267.3,794.2c-.5,0-1-.1-1.5-.4l-220.8-111.5c-1.7-.8-2.4-2.9-1.5-4.6.8-1.7,2.9-2.4,4.6-1.5l220.8,111.5c1.7.8,2.4,2.9,1.5,4.6-.6,1.2-1.8,1.9-3,1.9"/>
      <path class="cls-2" d="M358.6,688.5c-.8,0-1.6-.3-2.3-.9l-162.4-144.6c-1.4-1.2-1.5-3.4-.3-4.8s3.4-1.5,4.8-.3l162.4,144.6c1.4,1.2,1.5,3.4.3,4.8-.7.8-1.6,1.1-2.5,1.1"/>
      <path class="cls-2" d="M846.2,560.9c-.2,0-.5,0-.7,0-1.8-.4-3-2.2-2.6-4l35.1-170.4c.4-1.8,2.2-3,4-2.6,1.8.4,3,2.2,2.6,4l-35.1,170.4c-.3,1.6-1.8,2.7-3.3,2.7"/>
      <path class="cls-2" d="M1026.3,601.1c-.6,0-1.2-.2-1.8-.5-1.6-1-2.1-3.1-1.1-4.7l95.3-152.7c1-1.6,3.1-2.1,4.7-1.1,1.6,1,2.1,3.1,1.1,4.7l-95.3,152.7c-.6,1-1.7,1.6-2.9,1.6"/>
      <path class="cls-2" d="M1265.5,780.4c-1.2,0-2.4-.7-3.1-1.9-.8-1.7-.2-3.7,1.5-4.6l193.4-97.6c1.7-.8,3.7-.2,4.6,1.5.8,1.7.2,3.7-1.5,4.6l-193.4,97.6c-.5.3-1,.4-1.5.4"/>
      <path class="cls-2" d="M1163.8,673.4c-.9,0-1.9-.4-2.5-1.1-1.2-1.4-1.1-3.5.3-4.8l145.4-129.4c1.4-1.2,3.6-1.1,4.8.3,1.2,1.4,1.1,3.6-.3,4.8l-145.4,129.4c-.7.6-1.5.9-2.3.9"/>
      <path class="cls-1" d="M752.6,512.9c3.5,0,6.4,2.8,6.4,6.3s-2.9,6.3-6.4,6.3-6.4-2.8-6.4-6.3,2.9-6.3,6.4-6.3"/>
      <path class="cls-1" d="M752.6,477.6c3.5,0,6.4,2.8,6.4,6.3s-2.9,6.3-6.4,6.3-6.4-2.8-6.4-6.3,2.9-6.3,6.4-6.3"/>
      <path class="cls-1" d="M752.6,442.3c3.5,0,6.4,2.8,6.4,6.3s-2.9,6.3-6.4,6.3-6.4-2.8-6.4-6.3,2.9-6.3,6.4-6.3"/>
      <path class="cls-1" d="M752.6,407c3.5,0,6.4,2.8,6.4,6.3s-2.9,6.3-6.4,6.3-6.4-2.8-6.4-6.3,2.9-6.3,6.4-6.3"/>
      <path class="cls-1" d="M752.6,371.7c3.5,0,6.4,2.8,6.4,6.3s-2.9,6.3-6.4,6.3-6.4-2.8-6.4-6.3,2.9-6.3,6.4-6.3"/>
      <path class="cls-1" d="M551,539.7c3.3-1.4,7,.2,8.4,3.6,1.4,3.3-.1,7.1-3.4,8.5-3.3,1.4-7-.2-8.4-3.6-1.4-3.3.1-7.1,3.4-8.5"/>
      <path class="cls-1" d="M536.9,505.8c3.3-1.4,7,.2,8.4,3.6,1.4,3.3-.1,7.1-3.4,8.5-3.3,1.4-7-.2-8.4-3.6-1.4-3.3.1-7.1,3.4-8.5"/>
      <path class="cls-1" d="M522.9,471.9c3.3-1.4,7,.2,8.4,3.6,1.4,3.3-.1,7.1-3.4,8.5-3.3,1.4-7-.2-8.4-3.6-1.4-3.3.1-7.1,3.4-8.5"/>
      <path class="cls-1" d="M508.8,438c3.3-1.4,7,.2,8.4,3.6,1.4,3.3-.1,7.1-3.4,8.5-3.3,1.4-7-.2-8.4-3.6-1.4-3.3.1-7.1,3.4-8.5"/>
      <path class="cls-1" d="M494.7,404.2c3.3-1.4,7,.2,8.4,3.6,1.4,3.3-.1,7.1-3.4,8.5-3.3,1.4-7-.2-8.4-3.6-1.4-3.3.1-7.1,3.4-8.5"/>
      <path class="cls-1" d="M390.2,612.6c2.7-2.3,6.6-2.1,8.7.4,2.1,2.5,1.6,6.4-1.2,8.6-2.7,2.3-6.6,2.1-8.7-.4-2.1-2.5-1.6-6.4,1.1-8.6"/>
      <path class="cls-1" d="M369,587.2c2.7-2.3,6.6-2.1,8.7.4,2.1,2.5,1.6,6.3-1.1,8.6-2.7,2.3-6.6,2.1-8.7-.4-2.1-2.5-1.6-6.4,1.1-8.6"/>
      <path class="cls-1" d="M347.8,561.9c2.7-2.3,6.6-2.1,8.7.4,2.1,2.5,1.6,6.3-1.1,8.6s-6.6,2.1-8.7-.4c-2.1-2.5-1.6-6.3,1.1-8.6"/>
      <path class="cls-1" d="M326.6,536.5c2.7-2.3,6.6-2.1,8.7.4,2.1,2.5,1.6,6.3-1.1,8.6-2.7,2.3-6.6,2.1-8.7-.4-2.1-2.5-1.6-6.3,1.2-8.6"/>
      <path class="cls-1" d="M305.4,511.1c2.7-2.3,6.6-2.1,8.7.4,2.1,2.5,1.6,6.4-1.1,8.6-2.7,2.3-6.6,2.1-8.7-.4-2.1-2.5-1.6-6.3,1.1-8.6"/>
      <path class="cls-1" d="M284.2,485.8c2.7-2.3,6.6-2.1,8.7.4,2.1,2.5,1.6,6.4-1.1,8.6s-6.6,2.1-8.7-.4c-2.1-2.5-1.6-6.3,1.1-8.6"/>
      <path class="cls-1" d="M270.2,714.7c2-2.9,6-3.7,9-1.7,3,2,3.8,6,1.9,9-2,2.9-6,3.7-9,1.7-3-2-3.8-6.1-1.9-9"/>
      <path class="cls-1" d="M239.6,694.1c2-2.9,6-3.7,9-1.7,3,2,3.8,6.1,1.9,9-2,2.9-6,3.7-9,1.7-3-2-3.8-6-1.9-9"/>
      <path class="cls-1" d="M209,673.5c2-2.9,6-3.7,9-1.7s3.8,6.1,1.9,9c-2,2.9-6,3.7-9,1.7-3-2-3.8-6.1-1.9-9"/>
      <path class="cls-1" d="M178.4,652.9c2-2.9,6-3.7,9-1.6,3,2,3.8,6,1.9,9-2,2.9-6,3.7-9,1.7-3-2-3.8-6.1-1.9-9"/>
      <path class="cls-1" d="M147.8,632.2c2-2.9,6-3.7,9-1.7,3,2,3.8,6.1,1.9,9-2,2.9-6,3.7-9,1.7-3-2-3.8-6.1-1.9-9"/>
      <path class="cls-1" d="M117.2,611.6c2-2.9,6-3.7,9-1.7,3,2,3.8,6,1.9,9-2,2.9-6,3.7-9,1.7-3-2-3.8-6.1-1.9-9"/>
      <path class="cls-1" d="M1006.7,421.3c-3.3-1.3-4.9-5-3.6-8.1,1.3-3.1,5-4.6,8.2-3.3,3.3,1.3,4.9,5,3.6,8.1-1.3,3.1-5,4.6-8.2,3.3"/>
      <path class="cls-1" d="M993.7,453.3c-3.3-1.3-4.9-5-3.6-8.1,1.3-3.1,5-4.6,8.2-3.3,3.3,1.3,4.9,5,3.6,8.1-1.3,3.1-5,4.6-8.2,3.3"/>
      <path class="cls-1" d="M980.7,485.2c-3.3-1.3-4.9-5-3.6-8.1,1.3-3.1,5-4.6,8.2-3.3,3.3,1.3,4.9,5,3.6,8.1-1.3,3.1-5,4.6-8.3,3.3"/>
      <path class="cls-1" d="M967.6,517.2c-3.3-1.3-4.9-5-3.6-8.1,1.3-3.1,5-4.6,8.3-3.3,3.3,1.3,4.9,5,3.6,8.1-1.3,3.1-5,4.6-8.2,3.3"/>
      <path class="cls-1" d="M954.6,549.2c-3.3-1.3-4.9-5-3.6-8.1,1.3-3.1,5-4.6,8.2-3.3,3.3,1.3,4.9,5,3.6,8.1-1.3,3.1-5,4.6-8.3,3.3"/>
      <path class="cls-1" d="M1212.8,495c-2.7-2.3-3-6.3-.7-9.1,2.3-2.7,6.3-3.1,9-.8,2.7,2.3,3,6.3.7,9.1-2.3,2.7-6.3,3.1-9,.8"/>
      <path class="cls-1" d="M1189.4,522.7c-2.7-2.3-3-6.3-.7-9.1s6.3-3.1,9-.8c2.7,2.3,3,6.3.8,9.1-2.3,2.7-6.3,3.1-9.1.8"/>
      <path class="cls-1" d="M1166,550.3c-2.7-2.3-3-6.3-.8-9.1,2.3-2.7,6.4-3.1,9.1-.8,2.7,2.3,3,6.3.7,9-2.3,2.7-6.3,3.1-9,.8"/>
      <path class="cls-1" d="M1142.7,578c-2.7-2.3-3-6.3-.7-9.1,2.3-2.7,6.3-3.1,9-.8,2.7,2.3,3,6.3.8,9.1-2.3,2.7-6.3,3.1-9.1.8"/>
      <path class="cls-1" d="M1119.3,605.7c-2.7-2.3-3-6.3-.8-9.1,2.3-2.7,6.4-3.1,9.1-.8,2.7,2.3,3,6.3.7,9.1-2.3,2.7-6.3,3.1-9,.8"/>
      <path class="cls-1" d="M1380.1,614.7c-2-2.9-1-7.1,2.2-9.2,3.2-2.1,7.4-1.5,9.4,1.5,2,2.9,1,7.1-2.2,9.2-3.2,2.2-7.4,1.5-9.4-1.5"/>
      <path class="cls-1" d="M1347.5,636.6c-2-2.9-1-7.1,2.2-9.2,3.2-2.1,7.4-1.5,9.4,1.5,2,2.9,1,7.1-2.2,9.2-3.2,2.2-7.4,1.5-9.4-1.4"/>
      <path class="cls-1" d="M1314.9,658.4c-2-2.9-1-7.1,2.2-9.2,3.2-2.1,7.4-1.5,9.4,1.4,2,2.9,1,7.1-2.2,9.2-3.2,2.2-7.4,1.5-9.4-1.5"/>
      <path class="cls-1" d="M1282.3,680.2c-2-2.9-1-7.1,2.2-9.2,3.2-2.1,7.4-1.5,9.4,1.5,2,2.9,1,7.1-2.2,9.2-3.2,2.1-7.4,1.5-9.4-1.5"/>
      <path class="cls-1" d="M1249.8,702c-2-2.9-1-7.1,2.2-9.2,3.2-2.1,7.4-1.5,9.4,1.5,2,2.9,1,7.1-2.2,9.2-3.2,2.1-7.4,1.5-9.4-1.4"/>
      <path class="cls-2" d="M32.1,663.3c0-8.9-7.2-16.1-16.1-16.1S0,654.4,0,663.3s7.2,16.1,16.1,16.1,16.1-7.2,16.1-16.1"/>
      <path class="cls-2" d="M189,516.3c0-8.9-7.2-16.1-16.1-16.1s-16.1,7.2-16.1,16.1,7.2,16.1,16.1,16.1,16.1-7.2,16.1-16.1"/>
      <path class="cls-2" d="M383.7,415.9c0-8.9-7.2-16.1-16.1-16.1s-16.1,7.2-16.1,16.1,7.2,16.1,16.1,16.1,16.1-7.2,16.1-16.1"/>
      <g>
        <rect class="cls-2" x="596" y="335" width="33" height="33"/>
        <g class="cls-4">
          <path class="cls-2" d="M628.4,351.4c0-8.9-7.2-16.1-16.1-16.1s-16.1,7.2-16.1,16.1,7.2,16.1,16.1,16.1,16.1-7.2,16.1-16.1"/>
        </g>
      </g>
      <path class="cls-2" d="M905.3,354.9c0-8.9-7.2-16.1-16.1-16.1s-16.1,7.2-16.1,16.1,7.2,16.1,16.1,16.1,16.1-7.2,16.1-16.1"/>
      <path class="cls-2" d="M1153.7,415.7c0-8.9-7.2-16.1-16.1-16.1s-16.1,7.2-16.1,16.1,7.2,16.1,16.1,16.1,16.1-7.2,16.1-16.1"/>
      <path class="cls-2" d="M1348.2,520.2c0-8.9-7.2-16.1-16.1-16.1s-16.1,7.2-16.1,16.1,7.2,16.1,16.1,16.1,16.1-7.2,16.1-16.1"/>
      <path class="cls-2" d="M1499.9,666c0-8.9-7.2-16.1-16.1-16.1s-16.1,7.2-16.1,16.1,7.2,16.1,16.1,16.1,16.1-7.2,16.1-16.1"/>
      <path class="cls-2" d="M766.1,1023.8c-95,0-172.3-76.7-172.3-171s30.9-114.7,82.6-146c1.6-1,3.7-.5,4.7,1.1,1,1.6.5,3.7-1.2,4.7-49.7,30.1-79.4,82.5-79.4,140.2,0,90.5,74.2,164.2,165.5,164.2s165.4-73.6,165.4-164.2-30.9-111.4-80.5-140.9c-1.6-1-2.2-3-1.2-4.7,1-1.6,3-2.1,4.6-1.2,51.7,30.7,83.9,87,83.9,146.7,0,94.3-77.3,171-172.3,171"/>
      <path class="cls-2" d="M949.4,940.1c43-2.9,76.1-39.6,74.4-82.9-1.7-40.8-33.7-73.3-73.4-76.4,26,15.6,43.9,43.3,45.2,75.6,1.4,35.3-17.3,66.8-46.1,83.7"/>
      <path class="cls-2" d="M1048.4,918.3c31.2-2.1,55.3-28.7,54-60.2-1.2-29.7-24.5-53.2-53.3-55.4,18.9,11.3,31.9,31.5,32.8,54.9,1,25.6-12.6,48.5-33.5,60.8"/>
      <path class="cls-2" d="M1129,902.5c20.1-1.3,35.5-18.5,34.7-38.8-.8-19.1-15.7-34.2-34.3-35.6,12.1,7.3,20.5,20.2,21.1,35.3.7,16.5-8.1,31.2-21.5,39.1"/>
      <path class="cls-2" d="M198.3,1074.3c-1.1,0-2.2-.5-2.8-1.5-1.1-1.6-.6-3.7.9-4.7l119.4-80.6c1.6-1,3.7-.6,4.7.9,1,1.6.6,3.7-.9,4.7l-119.4,80.6c-.6.4-1.2.6-1.9.6"/>
      <g>
        <rect class="cls-2" x="765" y="1105" width="7" height="132.3"/>
        <g class="cls-3">
          <path class="cls-2" d="M768.5,1237.1c-1.9,0-3.4-1.5-3.4-3.4v-124.3c0-1.9,1.5-3.4,3.4-3.4s3.4,1.5,3.4,3.4v124.3c0,1.9-1.5,3.4-3.4,3.4"/>
        </g>
      </g>
      <path class="cls-2" d="M459.2,1196.3c-.5,0-1-.1-1.4-.3-1.7-.8-2.5-2.8-1.7-4.5l51.6-114.3c.8-1.7,2.8-2.5,4.5-1.7,1.7.8,2.5,2.8,1.7,4.5l-51.6,114.3c-.6,1.2-1.8,2-3.1,2"/>
      <path class="cls-2" d="M614.9,1225c-.2,0-.5,0-.7,0-1.9-.4-3-2.2-2.7-4l23.9-119.3c.4-1.8,2.2-3,4-2.7s3,2.2,2.7,4l-23.9,119.3c-.3,1.6-1.7,2.7-3.3,2.7"/>
      <path class="cls-2" d="M317.7,1145.5c-.8,0-1.6-.3-2.2-.8-1.4-1.2-1.6-3.4-.4-4.8l86.1-100.7c1.2-1.4,3.4-1.6,4.8-.4,1.4,1.2,1.6,3.4.4,4.8l-86.1,100.7c-.7.8-1.6,1.2-2.6,1.2"/>
      <path class="cls-2" d="M1332.3,1074.3c-.7,0-1.3-.2-1.9-.6l-119.4-80.6c-1.5-1.1-2-3.2-.9-4.7,1.1-1.6,3.2-2,4.7-.9l119.4,80.6c1.6,1.1,2,3.2.9,4.7-.7,1-1.7,1.5-2.8,1.5"/>
      <path class="cls-2" d="M1071.3,1196.3c-1.3,0-2.5-.8-3.1-2l-51.6-114.3c-.8-1.7,0-3.7,1.7-4.5,1.7-.8,3.7,0,4.5,1.7l51.6,114.3c.8,1.7,0,3.7-1.7,4.5-.5.2-.9.3-1.4.3"/>
      <path class="cls-2" d="M920.7,1225c-1.5,0-2.9-1-3.3-2.6l-28.9-119.3c-.4-1.8.7-3.7,2.5-4.1,1.8-.5,3.7.7,4.1,2.5l28.9,119.3c.4,1.8-.7,3.7-2.5,4.1-.3,0-.5,0-.8,0"/>
      <path class="cls-2" d="M1212.9,1145.5c-1,0-1.9-.4-2.6-1.2l-86.1-100.7c-1.2-1.4-1-3.6.4-4.8,1.4-1.2,3.6-1,4.8.4l86.1,100.7c1.2,1.4,1.1,3.6-.4,4.8-.6.6-1.4.8-2.2.8"/>
      <path class="cls-2" d="M328.4,877.8c-.7,0-1.4-.2-2-.6-1.5-1.1-1.9-3.2-.8-4.8,74.1-104.1,249.4-171.4,446.6-171.4s365.6,86,430.9,171.3c1.1,1.5.9,3.6-.6,4.8-1.5,1.1-3.6.9-4.8-.6-64.2-83.9-220.7-168.6-425.4-168.6s-368.1,66.1-441.1,168.5c-.7.9-1.7,1.4-2.8,1.4"/>
      <path class="cls-2" d="M766.1,1005.4c-84,0-152.4-67.8-152.4-151.2s27.3-101.4,73.1-129.1c1.6-1,3.7-.5,4.7,1.2,1,1.6.5,3.7-1.2,4.7-43.7,26.5-69.8,72.6-69.8,123.3,0,79.6,65.3,144.4,145.6,144.4s145.6-64.8,145.6-144.4-27.1-98-70.9-123.9c-1.6-1-2.1-3-1.2-4.7,1-1.6,3.1-2.1,4.7-1.2,45.7,27.2,74.2,76.9,74.2,129.8,0,83.4-68.4,151.2-152.4,151.2"/>
    </g>
  </g>
</svg>